<?xml version="1.0" standalone="no"?>
<!DOCTYPE svg PUBLIC "-//W3C//DTD SVG 20010904//EN"
 "http://www.w3.org/TR/2001/REC-SVG-20010904/DTD/svg10.dtd">
<svg version="1.0" xmlns="http://www.w3.org/2000/svg"
 width="964.000000pt" height="964.000000pt" viewBox="0 0 964.000000 964.000000"
 preserveAspectRatio="xMidYMid meet">
<metadata>
Created by potrace 1.16, written by Peter Selinger 2001-2019
</metadata>
<g transform="translate(0.000000,964.000000) scale(0.100000,-0.100000)"
fill="#000000" stroke="none">
<path d="M3435 8138 c-164 -7 -213 -16 -360 -65 -336 -110 -593 -309 -804
-622 -90 -133 -173 -360 -206 -565 -18 -107 -19 -312 -4 -422 17 -121 66 -299
111 -403 73 -165 205 -348 336 -464 l77 -67 5 -418 5 -417 25 -45 c45 -80 153
-115 233 -74 31 17 143 102 497 380 96 75 204 160 240 188 l65 51 258 5 259 5
-50 65 c-27 36 -80 117 -118 180 -38 63 -73 118 -79 122 -18 13 -327 8 -366
-6 -19 -7 -73 -41 -119 -77 -46 -35 -124 -95 -174 -134 -50 -38 -136 -105
-191 -148 l-100 -79 -5 268 c-6 307 -5 305 -95 373 -289 219 -439 488 -462
827 -18 278 113 625 316 838 147 154 312 249 546 313 l100 27 688 4 c758 3
774 2 958 -59 206 -68 419 -231 547 -420 39 -58 112 -203 112 -222 0 -14 -46
-16 -362 -19 -357 -4 -365 -4 -462 -31 -117 -32 -257 -98 -341 -162 -159 -121
-270 -257 -356 -439 -60 -130 -76 -184 -90 -317 -20 -183 6 -337 86 -504 66
-137 118 -210 229 -321 198 -199 421 -317 706 -375 96 -19 136 -21 486 -21
272 0 387 -3 402 -11 11 -7 163 -120 336 -252 408 -309 416 -315 478 -315 82
0 151 44 177 113 7 18 11 151 11 360 l1 332 75 65 c213 184 364 510 364 784 0
221 -95 496 -232 674 -48 62 -182 190 -242 231 -55 38 -189 105 -251 126 -135
45 -405 83 -405 57 0 -6 5 -33 11 -61 6 -27 13 -105 17 -173 l7 -123 69 -8
c91 -10 224 -55 313 -106 81 -47 190 -157 241 -243 78 -131 113 -300 93 -444
-32 -226 -121 -377 -306 -517 -117 -88 -115 -84 -115 -328 0 -115 -3 -209 -6
-209 -4 0 -32 20 -63 45 -212 167 -409 318 -443 337 -18 10 -142 14 -523 18
-309 4 -509 10 -524 16 -21 9 -15 13 65 44 225 84 400 195 559 355 208 208
345 446 407 706 19 82 22 123 22 314 1 195 -2 232 -22 325 -98 436 -403 817
-804 1004 -125 58 -254 102 -363 122 -77 14 -178 17 -720 18 -346 0 -693 -2
-770 -6z m2312 -1540 c-26 -366 -246 -696 -589 -881 -134 -73 -338 -127 -476
-127 -65 0 -66 1 -109 45 -167 175 -186 502 -42 726 101 156 229 252 409 304
73 22 80 22 454 24 l359 1 -6 -92z"/>
<path d="M5565 3785 c-5 -2 -22 -6 -37 -9 -37 -8 -98 -63 -114 -103 -28 -66
-9 -159 43 -205 51 -46 136 -60 201 -33 76 32 115 90 115 171 0 64 -24 109
-78 146 -37 24 -105 42 -130 33z"/>
<path d="M1642 3730 c-99 -26 -164 -63 -243 -137 -225 -212 -166 -576 114
-712 34 -17 130 -49 212 -71 293 -79 311 -86 365 -138 57 -55 69 -98 50 -169
-26 -89 -106 -139 -245 -150 -83 -7 -181 15 -238 53 -46 30 -95 105 -104 157
l-6 37 -161 -2 -161 -3 4 -45 c16 -205 178 -379 406 -436 102 -25 292 -30 393
-9 112 22 235 81 297 143 132 129 168 357 85 522 -77 153 -178 209 -543 304
-152 40 -198 60 -239 103 -51 54 -61 118 -28 182 43 85 138 127 266 119 120
-8 205 -66 239 -164 l13 -39 143 -3 c78 -1 146 1 150 5 12 13 -11 133 -37 191
-51 115 -158 206 -292 249 -110 36 -333 42 -440 13z"/>
<path d="M3220 3743 c-186 -31 -387 -148 -497 -288 -133 -169 -200 -416 -174
-636 17 -136 34 -199 87 -307 39 -81 59 -108 142 -191 143 -143 271 -203 494
-231 325 -41 654 134 807 429 175 340 106 771 -163 1018 -156 142 -344 214
-556 212 -63 -1 -126 -4 -140 -6z m335 -326 c186 -89 295 -273 295 -498 0
-201 -81 -371 -220 -464 -87 -58 -162 -79 -275 -78 -163 2 -283 59 -371 177
-78 103 -114 215 -114 358 0 159 49 292 146 397 103 111 216 155 379 146 75
-4 102 -11 160 -38z"/>
<path d="M4320 2925 l0 -795 490 -2 490 -3 0 143 0 142 -325 0 -325 0 0 655 0
655 -165 0 -165 0 0 -795z"/>
<path d="M7292 2924 l3 -795 155 0 155 0 5 291 c5 270 6 291 21 274 17 -19
166 -216 272 -359 33 -44 81 -108 107 -143 l47 -63 177 -2 c97 -1 176 2 176 6
0 5 -35 56 -77 115 -129 179 -276 383 -332 459 -61 84 -68 58 61 208 167 195
318 374 318 380 0 3 -76 5 -169 5 l-168 0 -39 -43 c-22 -23 -68 -78 -104 -122
-36 -43 -100 -122 -144 -174 -99 -121 -134 -161 -141 -161 -3 0 -5 207 -5 460
l0 460 -160 0 -160 0 2 -796z"/>
<path d="M6544 3311 c-92 -16 -167 -54 -231 -118 l-63 -61 0 79 0 79 -150 0
-150 0 0 -578 c0 -318 2 -581 4 -583 2 -2 74 -3 160 -1 l156 3 0 354 c0 332 1
358 20 409 62 163 246 224 393 129 27 -17 47 -42 65 -81 l27 -57 3 -377 3
-378 134 0 c73 0 141 -3 150 -6 15 -6 16 29 13 437 l-3 444 -32 65 c-59 119
-132 183 -248 219 -70 22 -192 33 -251 22z"/>
<path d="M5430 2711 l0 -580 151 -3 c95 -2 153 1 155 7 2 6 3 267 2 580 l-3
570 -152 3 -153 3 0 -580z"/>
</g>
</svg>
